<svg width="103" height="103" viewBox="0 0 103 103" fill="none" xmlns="http://www.w3.org/2000/svg">
<path d="M81.66 0C92.93 0 102.07 9.14 102.07 20.42V81.67C102.07 92.94 92.93 102.08 81.66 102.08H20.41C9.13 102.08 0 92.94 0 81.67V20.42C0 9.14 9.13 0 20.41 0H81.66Z" fill="#E94A22"/>
<path d="M39.2 19.56H24.39C21.14 19.56 18.51 22.18 18.51 25.42V75.33C18.51 78.58 21.14 81.2 24.39 81.2H30.4C32.09 81.07 33.4 79.77 33.4 78.06C33.4 76.63 31.95 75.31 30.31 75.31H27.34C25.72 75.31 24.4 73.99 24.4 72.38V28.39C24.4 26.77 25.72 25.46 27.34 25.46H36.22C37.84 25.46 39.16 26.76 39.16 28.39V75.33C39.16 78.28 36.99 80.77 34.15 81.2H39.18C42.42 81.2 45.05 78.58 45.05 75.33V25.42C45.05 22.17 42.42 19.56 39.18 19.56H39.2Z" fill="white"/>
<path d="M59.8 25.45H80.5C83.74 25.45 86.37 22.82 86.37 19.59V19.56H56.85C53.6 19.56 50.97 22.19 50.97 25.43V84.45H51C54.25 84.45 56.87 81.82 56.87 78.58V46.1H75.76V84.45H75.77C79.02 84.45 81.65 81.82 81.65 78.58V45.99C84.35 45.47 86.37 43.08 86.37 40.24V40.21H56.87V28.39C56.87 26.77 58.19 25.46 59.81 25.46L59.8 25.45Z" fill="white"/>
</svg>
